/* XPM */
static char * borderless32_xpm[] = {
"32 32 14 1",
" 	c None",
".	c #000000",
"+	c #555555",
"@	c #222222",
"#	c #CCFFFF",
"$	c #A0A0A4",
"%	c #DDDDDD",
"&	c #777777",
"*	c #FFCC00",
"=	c #FFFF00",
"-	c #FF3300",
";	c #FF9900",
">	c #FF0000",
",	c #BB0000",
" ............................   ",
".+++@++.#####$$$%$%%#%$.&++*+.  ",
".+++@++.####$$$%$...%$#.&+++*+. ",
".+++@++.###$$$%$.+++.%$.&++++*+.",
".+++@++.##$$$%$%.+++.$#.&++*+*+.",
".+++@++.#$$$%$%#.*++.##.&+*+++*.",
".+++@++.$$$%$%%%.+*+.##.&**+++*.",
".+++@++.$$%$%#%#.+**.##.&**+++*.",
".+++@++.$%$%%%%$$...##$.&***+**.",
".+++@++.%$%#%#$$%####$#.&******.",
".+++@++*...............+&******.",
".+++@&&&=&&&&&&&&&====&&&**-***.",
".+++++++*++++*++++****++**--***.",
".+++*+++*+++*+++++****++**-***+.",
".++*++++*++**+++++****+***-***+.",
".+**+++**++**++++**-*++**---**+.",
".***++***++***++**-**++**----**.",
".*****-*+++******--*+++***---**.",
".*-**;>;@@@@;;;;;>>;@@@@;;;--**.",
".**-;--*++++*-***--*++++*--&-*+.",
".+*-;-**+++**--**--*+++++*-&-*+.",
".++*>-*******--*---*+++++*-&--*.",
".++*>--*****-------**+++*--&---.",
".++->--------------*****---&>>-.",
".+*-,---------------***----&>>>.",
".*>>,>---->>>>------------>&>>>.",
".>>>,>>>>>>>>>>---------->>&>>>.",
".>>>,>>>>>>>>>>>>>>>---->>>&>>>.",
".>>>,>>>>>>>>>>>>>>>>>>>>>>&>>>.",
".>>>,>>>>>>>>>>>>>>>>>>>>>>&>>>.",
".>>>,>>>>>>>>>>>>>>>>>>>>>>&>>>.",
" .............................. "};
